<svg width="134" height="36" viewBox="0 0 134 36" fill="none" xmlns="http://www.w3.org/2000/svg"><path opacity=".25" fill-rule="evenodd" clip-rule="evenodd" d="M97.699 7.177c-.54.54-1.025 1.133-1.447 1.77a11.46 11.46 0 0 0-9.55-5.126h-23.81v2.913A11.451 11.451 0 0 0 55.26 3.82H42.907a11.458 11.458 0 0 0-9.549 5.125 11.454 11.454 0 0 0-9.549-5.125H0V36h23.812a11.454 11.454 0 0 0 9.549-5.127A11.454 11.454 0 0 0 42.91 36h12.352c2.816 0 5.532-1.037 7.631-2.913V36h19.545v-6.173h4.267a11.455 11.455 0 0 0 8.53-3.807h6.972V36h19.545v-9.98h7.858V3.82H105.8a11.455 11.455 0 0 0-8.101 3.357Z" fill="#061533"/><path d="M27.632 1.91H5.731V30.27h21.901a9.555 9.555 0 0 0 6.753-2.796 9.554 9.554 0 0 0 2.796-6.753v-9.26a9.549 9.549 0 0 0-9.549-9.55Z" fill="#7047EB"/><path fill-rule="evenodd" clip-rule="evenodd" d="M3.82 0h23.812A11.458 11.458 0 0 1 39.09 11.458v9.262a11.458 11.458 0 0 1-11.458 11.458H3.821V0Zm3.82 3.82v24.539h19.992a7.639 7.639 0 0 0 7.639-7.64v-9.26a7.644 7.644 0 0 0-4.715-7.057 7.638 7.638 0 0 0-2.924-.581L7.64 3.819Z" fill="#fff"/><path fill-rule="evenodd" clip-rule="evenodd" d="M23.371 23.236v-12.6h3.82v12.6h-3.82Z" fill="#fff"/><path d="M90.528 1.91H68.625V30.27h15.726v-6.173h6.177a9.55 9.55 0 0 0 9.547-9.547v-3.09a9.548 9.548 0 0 0-9.547-9.549Z" fill="#7047EB"/><path fill-rule="evenodd" clip-rule="evenodd" d="M66.716 0h23.812a11.458 11.458 0 0 1 11.458 11.458v3.09a11.46 11.46 0 0 1-11.458 11.458H86.26v6.172H66.716V0Zm3.82 3.82v24.539H82.44v-6.172h8.088a7.644 7.644 0 0 0 5.401-2.237 7.644 7.644 0 0 0 2.237-5.401v-3.09a7.644 7.644 0 0 0-2.236-5.401 7.644 7.644 0 0 0-5.402-2.237l-19.993-.002Z" fill="#fff"/><path fill-rule="evenodd" clip-rule="evenodd" d="M86.275 18.346v-7.714h3.82v7.714h-3.82Z" fill="#fff"/><path d="M59.085 1.91H46.732a9.543 9.543 0 0 0-8.822 5.894 9.545 9.545 0 0 0-.726 3.654v9.262a9.55 9.55 0 0 0 9.548 9.549h12.353a9.555 9.555 0 0 0 6.753-2.796 9.554 9.554 0 0 0 2.797-6.753v-9.26a9.55 9.55 0 0 0-9.55-9.55Z" fill="#7047EB"/><path fill-rule="evenodd" clip-rule="evenodd" d="M38.627 3.356A11.458 11.458 0 0 1 46.729 0h12.356a11.458 11.458 0 0 1 11.458 11.458v9.262a11.458 11.458 0 0 1-11.458 11.458H46.732A11.458 11.458 0 0 1 35.274 20.72v-9.26a11.458 11.458 0 0 1 3.353-8.104Zm8.102.463a7.644 7.644 0 0 0-5.402 2.237 7.644 7.644 0 0 0-2.237 5.402v9.262a7.64 7.64 0 0 0 7.64 7.639h12.355a7.642 7.642 0 0 0 7.058-4.716 7.64 7.64 0 0 0 .581-2.923v-9.26a7.644 7.644 0 0 0-4.715-7.058 7.638 7.638 0 0 0-2.924-.581L46.73 3.819Z" fill="#fff"/><path fill-rule="evenodd" clip-rule="evenodd" d="M50.992 10.636v12.6h-3.82v-12.6h3.82Z" fill="#fff"/><path d="M131.527 1.91h-21.905a9.542 9.542 0 0 0-6.751 2.797 9.544 9.544 0 0 0-2.798 6.751v8.831h7.858v9.98h15.726v-9.98h7.858l.012-18.379Z" fill="#7047EB"/><path fill-rule="evenodd" clip-rule="evenodd" d="M101.522 3.356A11.46 11.46 0 0 1 109.625 0h23.811v22.198h-7.858v9.98h-19.545v-9.98h-7.858V11.459a11.46 11.46 0 0 1 3.347-8.103Zm8.103.463a7.639 7.639 0 0 0-7.639 7.64v6.92h7.858v9.98h11.907v-9.98h7.858V3.819h-19.984Z" fill="#fff"/></svg>
